Cast Away *2000*[BluRay][1080p][ENG, POL]

General information:
Country: USA
Release: 7 December 2000
Genre: Adventure, Drama 
Director: Robert Zemeckis
Screenplay: William Broyles
Original Music: Alan Silvestri 
Cinematography by: Don Burgess 
Duration: 2h 23mn
Language: English,Polish
Subtitles: English,Polish
Rating: 7.8/10 - 71303 votes 

Cast:
Tom Hanks  ...  Chuck Noland 
Paul Sanchez  ...  Ramon  
Lari White  ...  Bettina Peterson  
Leonid Citer  ...  Fyodor  
David Allen Brooks  ...  Dick Peterson  
Jelena Papovic  ...  Beautiful Russian Woman (as Yelena Papovic)  
Valentina Ananyina  ...  Russian Babushka  
Semion Sudarikov  ...  Nicolai  
Peter von Berg  ...  Yuri (as Peter Von Berg)  
Dmitri S. Boudrine  ...  Lev  
François Duhamel  ...  French FedEx Loader  
Michael Forest  ...  Pilot Jack  
Viveka Davis  ...  Pilot Gwen  
Nick Searcy  ...  Stan  
Jae Choe  ...  Memphis State Student (as Jennifer Choe)  

Plot:
A FedEx executive must transform himself physically and emotionally to survive a crash landing on a deserted island. 

Specifications:
General
Format                           : Matroska
Overall bit rate                 : 13.5 Mbps

Video
Format                           : AVC
Format/Info                      : Advanced Video Codec
Format profile                   : High@L4.1
Format settings, CABAC           : Yes
Format settings, ReFrames        : 4 frames
Muxing mode                      : Container profile=Unknown@4.1
Codec ID                         : V_MPEG4/ISO/AVC
Bit rate                         : 11.6 Mbps
Width                            : 1 920 pixels
Height                           : 1 040 pixels
Display aspect ratio             : 16:9
Frame rate                       : 23.976 fps

Audio 1
Format                           : DTS
Format/Info                      : Digital Theater Systems
Codec ID                         : A_DTS
Bit rate mode                    : Constant
Bit rate                         : 1 510 Kbps
Channel(s)                       : 6 channels
Channel positions                : Front: L C R, Side: L R, LFE
Sampling rate                    : 48.0 KHz
Bit depth                        : 24 bits
Stream size                      : 1.52 GiB (11%)
Title                            : English

Audio 2
Format                           : AC-3
Format/Info                      : Audio Coding 3
Mode extension                   : CM (complete main)
Codec ID                         : A_AC3
Bit rate mode                    : Constant
Bit rate                         : 384 Kbps
Channel(s)                       : 2 channels
Channel positions                : Front: L R
Sampling rate                    : 48.0 KHz
Stream size                      : 395 MiB (3%)
Title                            : Polish
Language                         : Polish

Text 1
Format                           : UTF-8
Codec ID                         : S_TEXT/UTF8
Codec ID/Info                    : UTF-8 Plain Text
Title                            : English

Text 2
Format                           : UTF-8
Codec ID                         : S_TEXT/UTF8
Codec ID/Info                    : UTF-8 Plain Text
Title                            : Polish
Language                         : Polish

For playback on Windows PCs, I recommend - Splash Pro